<?xml version="1.0" encoding="UTF-8"?>
<!DOCTYPE svg PUBLIC "-//W3C//DTD SVG 1.1//EN" "http://www.w3.org/Graphics/SVG/1.1/DTD/svg11.dtd">
<!-- Creator: CorelDRAW 2021 (64-Bit) -->
<svg xmlns="http://www.w3.org/2000/svg" xml:space="preserve" width="154px" height="154px" version="1.1" shape-rendering="geometricPrecision" text-rendering="geometricPrecision" image-rendering="optimizeQuality" fill-rule="evenodd" clip-rule="evenodd"
viewBox="0 0 154 154"
 xmlns:xlink="http://www.w3.org/1999/xlink"
 xmlns:xodm="http://www.corel.com/coreldraw/odm/2003">
 <g id="Layer_x0020_1">
  <metadata id="CorelCorpID_0Corel-Layer"/>
  <path fill="#2B2A29" fill-rule="nonzero" d="M64.94 148.57c-34.06,-6.1 -59.87,-35.49 -59.87,-70.98 0,-39.44 32.27,-71.7 71.7,-71.7 39.43,0 71.7,32.26 71.7,71.7 0,35.49 -25.81,64.88 -59.87,70.98l-0.3 -0.25 0.66 -0.11 0 -50.55 15.77 0 3.23 -20.07 -19 0 0 -13.98c0,-5.74 2.15,-10.04 10.75,-10.04l9.32 0 0 -18.28c-5.02,-0.72 -10.75,-1.44 -15.77,-1.44 -16.49,0 -27.96,10.04 -27.96,27.96l0 15.78 -17.92 0 0 20.07 17.92 0 0 50.55 0.07 0.01 -0.43 0.35z"/>
 </g>
</svg>
