<?xml version="1.0" encoding="UTF-8"?>
<!DOCTYPE svg PUBLIC "-//W3C//DTD SVG 1.1//EN" "http://www.w3.org/Graphics/SVG/1.1/DTD/svg11.dtd">
<!-- Creator: CorelDRAW 2021 (64-Bit) -->
<svg xmlns="http://www.w3.org/2000/svg" xml:space="preserve" width="154px" height="154px" version="1.1" shape-rendering="geometricPrecision" text-rendering="geometricPrecision" image-rendering="optimizeQuality" fill-rule="evenodd" clip-rule="evenodd"
viewBox="0 0 154 154"
 xmlns:xlink="http://www.w3.org/1999/xlink"
 xmlns:xodm="http://www.corel.com/coreldraw/odm/2003">
 <g id="Layer_x0020_1">
  <metadata id="CorelCorpID_0Corel-Layer"/>
  <path fill="#2B2A29" d="M28.98 94.3c-0.38,-6.47 -0.22,-13.63 -0.18,-20.16 0.08,-11.24 -1.14,-26 6.13,-34.6 1.63,-1.92 3.03,-3.42 5.22,-4.92 7.46,-5.12 16.34,-5.05 25.42,-5.14 6.75,-0.08 13.53,-0.05 20.28,-0.02 6.16,0.03 13.12,0 18.85,1.47 2.71,0.69 5.07,1.79 7.14,3 1.52,0.89 4.9,3.62 5.44,4.75 0.42,0.13 0.57,0.54 0.84,0.86 1.85,2.19 3.21,5.03 4.17,7.84 1.23,3.64 1.59,7.73 1.76,11.84 0.36,8.97 0.13,18.26 0.13,27.27 0,8.78 0.15,16.77 -3.35,24.03 -1.76,3.65 -4.89,7.16 -7.94,9.19 -2.24,1.49 -4.15,2.44 -6.83,3.31 -7.09,2.28 -17.67,1.81 -25.57,1.81 -4.55,0 -9.09,0 -13.64,0 -11.12,0 -21.55,0.26 -29.88,-7.76l-1.63 -1.74c-1,-1.31 -1.9,-2.44 -2.76,-4.12 -2.84,-5.5 -3.44,-10.5 -3.6,-16.91zm45.99 -33c-8.29,0.84 -15.28,8.13 -14.32,17.51 0.86,8.23 8.19,15.19 17.52,14.23 8.23,-0.85 15.18,-8.18 14.22,-17.52 -0.84,-8.19 -8.15,-15.15 -17.42,-14.22zm-0.52 -8.53c8.23,-0.77 16.43,3 21.26,9.18 2.92,3.74 4.76,7.98 5.22,13.11 0.33,3.71 -0.25,7.47 -1.43,10.63 -1.27,3.37 -2.52,5.07 -4.57,7.67l-2.35 2.31c-1.69,1.29 -2.32,1.92 -4.49,3.09 -2.7,1.46 -5.88,2.49 -9.43,2.81 -7.46,0.68 -14.09,-2.03 -19.14,-6.81 -1.9,-1.79 -3.26,-3.7 -4.58,-6.03 -3.34,-5.86 -3.76,-13.77 -1.39,-20.08 0.57,-1.52 1.26,-2.89 2.01,-4.17 0.84,-1.4 1.69,-2.39 2.57,-3.5 0.48,-0.61 2.5,-2.47 3.17,-2.99 3.8,-2.96 7.98,-4.73 13.15,-5.22zm26.52 -6.66c3.42,-0.62 6.15,1.85 6.63,4.64 0.58,3.46 -1.88,6.14 -4.71,6.62 -3.42,0.57 -6.1,-1.9 -6.56,-4.67 -0.58,-3.42 1.83,-6.09 4.64,-6.59zm-63.33 50.75c0.15,3.6 0.78,6.8 2.14,9.71 1.25,2.68 3.38,4.91 5.55,6.34 5.28,3.48 13.19,3.36 20.36,3.42 7.84,0.06 15.82,0.14 23.65,-0.03 7.54,-0.15 14.55,-0.16 19.53,-4.22 4.73,-3.88 6.27,-8.72 6.63,-17.08 0.34,-7.79 0.21,-15.72 0.21,-23.54 0,-6.25 0.28,-16.62 -1.72,-21.96 -1.03,-2.75 -2.59,-5.26 -4.87,-7.03 -1.87,-1.46 -3.36,-2.31 -5.8,-3.06 -0.73,-0.23 -1.63,-0.37 -2.32,-0.6 -8.04,-1.06 -21.7,-0.89 -30.18,-0.82 -13.62,0.1 -28.89,-1.54 -32.47,13.94 -1.39,6.02 -1,22.92 -1.01,29.9 0,4.73 -0.16,10.41 0.3,15.03zm-24.16 -55.82l0 72.37c0,9.06 6.02,18.88 13.83,23.12 0.78,0.42 1.4,0.75 2.21,1.16 2.59,1.3 7.05,2.64 10.88,2.64l72.37 0c3.76,0 8.26,-1.32 10.8,-2.6 0.81,-0.41 1.44,-0.73 2.21,-1.16 0.78,-0.44 1.35,-0.82 2.07,-1.32 2.42,-1.67 5.02,-4.3 6.71,-6.69 2.88,-4.07 5.13,-9.8 5.13,-15.15l0 -72.37c0,-5.48 -2.2,-10.83 -5.04,-15.01 -0.91,-1.35 -1.96,-2.52 -3.09,-3.66 -4.79,-4.79 -11.88,-8.24 -18.68,-8.24l-72.6 0c-6.74,0 -13.86,3.42 -18.61,8.18 -4.77,4.77 -8.19,11.8 -8.19,18.73z"/>
 </g>
</svg>
