<?xml version="1.0" encoding="UTF-8"?>
<!DOCTYPE svg PUBLIC "-//W3C//DTD SVG 1.1//EN" "http://www.w3.org/Graphics/SVG/1.1/DTD/svg11.dtd">
<!-- Creator: CorelDRAW 2021 (64-Bit) -->
<svg xmlns="http://www.w3.org/2000/svg" xml:space="preserve" width="154px" height="154px" version="1.1" shape-rendering="geometricPrecision" text-rendering="geometricPrecision" image-rendering="optimizeQuality" fill-rule="evenodd" clip-rule="evenodd"
viewBox="0 0 154 154"
 xmlns:xlink="http://www.w3.org/1999/xlink"
 xmlns:xodm="http://www.corel.com/coreldraw/odm/2003">
 <g id="Layer_x0020_1">
  <metadata id="CorelCorpID_0Corel-Layer"/>
  <path fill="#2B2A29" fill-rule="nonzero" d="M113.58 14.13l-73.62 0c-14.52,0 -26.29,11.77 -26.29,26.29l0 73.62c0,14.52 11.77,26.29 26.29,26.29l73.62 0c14.52,0 26.29,-11.77 26.29,-26.29l0 -73.62c0,-14.52 -11.77,-26.29 -26.29,-26.29zm-57.84 99.91l-15.78 0 0 -57.84 15.78 0 0 57.84zm-7.89 -64.51c-5.08,0 -9.2,-4.16 -9.2,-9.28 0,-5.12 4.12,-9.27 9.2,-9.27 5.08,0 9.2,4.15 9.2,9.27 0,5.12 -4.12,9.28 -9.2,9.28zm70.99 64.51l-15.78 0 0 -29.47c0,-17.71 -21.03,-16.37 -21.03,0l0 29.47 -15.78 0 0 -57.84 15.78 0 0 9.28c7.34,-13.6 36.81,-14.61 36.81,13.02l0 35.54z"/>
 </g>
</svg>
