<?xml version="1.0" encoding="UTF-8"?>
<!DOCTYPE svg PUBLIC "-//W3C//DTD SVG 1.1//EN" "http://www.w3.org/Graphics/SVG/1.1/DTD/svg11.dtd">
<!-- Creator: CorelDRAW 2021 (64-Bit) -->
<svg xmlns="http://www.w3.org/2000/svg" xml:space="preserve" width="177px" height="154px" version="1.1" shape-rendering="geometricPrecision" text-rendering="geometricPrecision" image-rendering="optimizeQuality" fill-rule="evenodd" clip-rule="evenodd"
viewBox="0 0 177 153.4"
 xmlns:xlink="http://www.w3.org/1999/xlink"
 xmlns:xodm="http://www.corel.com/coreldraw/odm/2003">
 <g id="Layer_x0020_1">
  <metadata id="CorelCorpID_0Corel-Layer"/>
  <path id="path5" fill="#2B2A29" fill-rule="nonzero" d="M168.47 27.18c-5.9,2.62 -12.25,4.39 -18.9,5.19 6.79,-4.08 12.01,-10.52 14.47,-18.21 -6.36,3.77 -13.4,6.51 -20.9,7.99 -6,-6.4 -14.55,-10.39 -24.02,-10.39 -18.17,0 -32.9,14.73 -32.9,32.9 0,2.58 0.29,5.09 0.85,7.5 -27.35,-1.37 -51.6,-14.47 -67.83,-34.38 -2.83,4.86 -4.45,10.51 -4.45,16.54 0,11.42 5.81,21.49 14.64,27.39 -5.4,-0.17 -10.47,-1.65 -14.91,-4.12 0,0.14 0,0.28 0,0.42 0,15.94 11.34,29.24 26.4,32.26 -2.77,0.76 -5.67,1.16 -8.67,1.16 -2.12,0 -4.18,-0.21 -6.2,-0.59 4.19,13.07 16.35,22.58 30.74,22.85 -11.26,8.82 -25.45,14.09 -40.86,14.09 -2.66,0 -5.28,-0.16 -7.85,-0.47 14.56,9.34 31.86,14.79 50.44,14.79 60.53,0 93.62,-50.14 93.62,-93.63 0,-1.42 -0.03,-2.84 -0.09,-4.25 6.43,-4.64 12.01,-10.44 16.42,-17.04l0 0z" inkscape:connector-curvature="0"/>
 </g>
</svg>
